<svg width="45" height="46" viewBox="0 0 45 46" fill="none" xmlns="http://www.w3.org/2000/svg">
<rect x="0.5" y="0.5" width="44" height="45" rx="4.5" stroke="#EEEEEE"/>
<path fill-rule="evenodd" clip-rule="evenodd" d="M15.5652 14C14.7011 14 14 14.7129 14 15.5904V16.5264C14 17.1765 14.2472 17.8016 14.6894 18.2718L19.5351 23.4243L19.5372 23.4211C20.4727 24.3788 20.9991 25.6734 20.9991 27.0233V31.5952C20.9991 31.9007 21.3187 32.0957 21.584 31.9516L24.3436 30.4479C24.7602 30.2204 25.0201 29.7784 25.0201 29.2984V27.0114C25.0201 25.6691 25.539 24.3799 26.466 23.4243L31.3117 18.2718C31.7528 17.8016 32 17.1765 32 16.5264V15.5904C32 14.7129 31.3 14 30.4359 14H15.5652Z" stroke="#47545F" stroke-width="1.5" stroke-linecap="round" stroke-linejoin="round"/>
</svg>
